<svg width="42" height="42" viewBox="0 0 42 42" fill="none" xmlns="http://www.w3.org/2000/svg">
<g id="Group 966">
<path id="Vector" fill-rule="evenodd" clip-rule="evenodd" d="M20.1045 14.7885C20.7638 15.5194 20.5548 16.3475 19.9717 17.1332C19.8335 17.3194 19.6742 17.503 19.4818 17.7052C19.3894 17.8023 19.3174 17.8753 19.1667 18.0261C18.8246 18.3686 18.537 18.6564 18.3039 18.8894C18.1908 19.0025 18.9626 20.5447 20.4604 22.0439C21.9573 23.5423 23.4994 24.3146 23.613 24.201L24.4752 23.3382C24.9501 22.8629 25.2015 22.6336 25.5471 22.4069C26.2654 21.9356 27.049 21.8076 27.7098 22.3985C29.8674 23.9419 31.0884 24.889 31.6866 25.5105C32.8533 26.7228 32.7004 28.5888 31.6932 29.6534C31.344 30.0225 30.9011 30.4656 30.3781 30.9698C27.2143 34.1354 20.5371 32.2089 15.4198 27.0866C10.3013 21.9631 8.37585 15.2853 11.5331 12.1264C12.0999 11.5506 12.2867 11.3639 12.8388 10.8199C13.8665 9.80723 15.8187 9.64866 17.0054 10.8209C17.6296 11.4375 18.6247 12.718 20.1045 14.7885ZM26.066 24.9295L25.2035 25.7924C23.7376 27.2591 21.2411 26.0089 18.8695 23.635C16.4963 21.2594 15.2474 18.7638 16.7138 17.2975C16.9466 17.0647 17.234 16.7772 17.5758 16.435C17.7138 16.297 17.7769 16.233 17.8526 16.1534C17.9558 16.045 18.0406 15.9497 18.1085 15.8654C16.7971 14.0387 15.9056 12.8972 15.425 12.4225C15.1768 12.1773 14.6211 12.2225 14.4171 12.4235C13.8729 12.9596 13.6941 13.1384 13.1296 13.7118C11.0992 15.7433 12.6535 21.1341 17.0106 25.4955C21.3664 29.8556 26.7564 31.4107 28.8023 29.3639C29.3172 28.8673 29.7367 28.4475 30.0597 28.1061C30.2931 27.8595 30.3348 27.3505 30.0663 27.0716C29.6192 26.607 28.5245 25.7535 26.6344 24.3962C26.4966 24.5071 26.3273 24.6679 26.066 24.9295Z" fill="white"/>
<circle id="Ellipse 5" cx="21" cy="21" r="20" stroke="white" stroke-width="2"/>
</g>
</svg>
